<svg width="24" height="24" viewBox="0 0 24 24" fill="none" xmlns="http://www.w3.org/2000/svg">
<g clip-path="url(#clip0_1_56)">
<path d="M6.99994 8V6C6.99994 4.67916 7.07087 2.93397 7.99994 2C8.92902 1.06603 10.686 1 11.9999 1C13.3139 1 15.0709 1.06603 15.9999 2C16.929 2.93397 16.9999 4.67916 16.9999 6V8H19.9999C20.2627 8 20.8141 7.81321 20.9999 8C21.1858 8.18679 20.9999 8.73583 20.9999 9V21C20.9999 21.2642 21.1858 21.8132 20.9999 22C20.8141 22.1868 20.2627 22 19.9999 22H3.99994C3.73716 22 3.18576 22.1868 2.99994 22C2.81413 21.8132 2.99994 21.2642 2.99994 21V9C2.99994 8.73583 2.81413 8.18679 2.99994 8C3.18576 7.81321 3.73716 8 3.99994 8H6.99994ZM6.99994 10H4.99994V20H18.9999V10H16.9999V12H14.9999V10H8.99994V12H6.99994V10ZM8.99994 8H14.9999V6C14.9999 5.2075 14.5574 4.56038 13.9999 4C13.4425 3.43962 12.7883 3 11.9999 3C11.2116 3 10.5574 3.43962 9.99994 4C9.4425 4.56038 8.99994 5.2075 8.99994 6V8Z" fill="#C4C4C4"/>
</g>
<defs>
<clipPath id="clip0_1_56">
<rect width="24" height="24" fill="white"/>
</clipPath>
</defs>
</svg>
